# MagicaVoxel @ Ephtracy

# material
mtllib BeaconBox00.mtl
usemtl palette

# normals
vn -1 0 0
vn 1 0 0
vn 0 0 1
vn 0 0 -1
vn 0 -1 0
vn 0 1 0

# texcoords
vt 0.939453 0.5
vt 0.943359 0.5
vt 0.947266 0.5
vt 0.970703 0.5
vt 0.978516 0.5
vt 0.982422 0.5
vt 0.986328 0.5
vt 0.990234 0.5

# verts
v -20 0 18
v -20 0 16
v -20 0 -16
v -20 0 -18
v -20 1 18
v -20 1 16
v -20 1 -16
v -20 1 -18
v -18 0 20
v -18 0 19
v -18 0 -18
v -18 0 -20
v -18 1 20
v -18 1 19
v -18 1 18
v -18 1 16
v -18 1 -16
v -18 1 -18
v -18 1 -20
v -18 3 18
v -18 3 16
v -18 3 -16
v -18 3 -18
v -17 0 19
v -17 0 18
v -17 1 19
v -17 1 18
v 18 0 20
v 18 0 18
v 18 0 -18
v 18 0 -20
v 18 1 20
v 18 1 18
v 18 1 16
v 18 1 -16
v 18 1 -18
v 18 1 -20
v 18 3 18
v 18 3 16
v 18 3 -16
v 18 3 -18
v 20 0 18
v 20 0 16
v 20 0 -16
v 20 0 -18
v 20 1 18
v 20 1 16
v 20 1 -16
v 20 1 -18
v -18 0 20
v -18 1 20
v -16 0 20
v -16 1 20
v 16 0 20
v 16 1 20
v 18 0 20
v 18 1 20
v -20 0 18
v -20 1 18
v -18 1 18
v -18 3 18
v -17 0 18
v -17 1 18
v -16 1 18
v -16 3 18
v 16 1 18
v 16 3 18
v 18 0 18
v 18 1 18
v 18 3 18
v 20 0 18
v 20 1 18
v -18 0 19
v -18 1 19
v -17 0 19
v -17 1 19
v -20 0 -18
v -20 1 -18
v -18 0 -18
v -18 1 -18
v -18 3 -18
v -16 1 -18
v -16 3 -18
v 16 1 -18
v 16 3 -18
v 18 0 -18
v 18 1 -18
v 18 3 -18
v 20 0 -18
v 20 1 -18
v -18 0 -20
v -18 1 -20
v -16 0 -20
v -16 1 -20
v 16 0 -20
v 16 1 -20
v 18 0 -20
v 18 1 -20
v -18 0 20
v -16 0 20
v 16 0 20
v 18 0 20
v -18 0 19
v -17 0 19
v -20 0 18
v -17 0 18
v 18 0 18
v 20 0 18
v 16 0 17
v 17 0 17
v -20 0 16
v -16 0 16
v 17 0 16
v 20 0 16
v -20 0 -16
v -17 0 -16
v 17 0 -16
v 20 0 -16
v -17 0 -17
v -16 0 -17
v 16 0 -17
v 17 0 -17
v -20 0 -18
v -18 0 -18
v 18 0 -18
v 20 0 -18
v -18 0 -20
v -16 0 -20
v 16 0 -20
v 18 0 -20
v -18 1 20
v -16 1 20
v 16 1 20
v 18 1 20
v -18 1 19
v -17 1 19
v -20 1 18
v -18 1 18
v -17 1 18
v -16 1 18
v 16 1 18
v 18 1 18
v 20 1 18
v -20 1 16
v -18 1 16
v 18 1 16
v 20 1 16
v -20 1 -16
v -18 1 -16
v 18 1 -16
v 20 1 -16
v -20 1 -18
v -18 1 -18
v -16 1 -18
v 16 1 -18
v 18 1 -18
v 20 1 -18
v -18 1 -20
v -16 1 -20
v 16 1 -20
v 18 1 -20
v -18 3 18
v -16 3 18
v 16 3 18
v 18 3 18
v -18 3 16
v -16 3 16
v 16 3 16
v 18 3 16
v -11 3 14
v -10 3 14
v -5 3 14
v -4 3 14
v 6 3 14
v 8 3 14
v 6 3 12
v 8 3 12
v 10 3 12
v 10 3 11
v 11 3 11
v -12 3 10
v -11 3 10
v -10 3 10
v -5 3 10
v -4 3 10
v -2 3 10
v 6 3 10
v 8 3 10
v 5 3 8
v 6 3 8
v 11 3 8
v 12 3 8
v 3 3 7
v 5 3 7
v 12 3 7
v 13 3 7
v -16 3 6
v -14 3 6
v -8 3 5
v -6 3 5
v -16 3 4
v -14 3 4
v -12 3 4
v -10 3 4
v -8 3 4
v -6 3 4
v -4 3 4
v 5 3 4
v 6 3 4
v 10 3 4
v 11 3 4
v -14 3 3
v -12 3 3
v -2 3 3
v 0 3 3
v -8 3 2
v -6 3 2
v -2 3 2
v 0 3 2
v 1 3 2
v 5 3 1
v 6 3 1
v 10 3 1
v 11 3 1
v -10 3 -0
v -9 3 -0
v -5 3 -0
v -4 3 -0
v 5 3 -0
v 6 3 -0
v 10 3 -0
v 11 3 -0
v -10 3 -1
v -9 3 -1
v -5 3 -1
v -4 3 -1
v 0 3 -2
v 1 3 -2
v 3 3 -2
v 7 3 -2
v 9 3 -2
v 1 3 -3
v 3 3 -3
v 13 3 -3
v 15 3 -3
v -10 3 -4
v -9 3 -4
v -5 3 -4
v -4 3 -4
v 5 3 -4
v 7 3 -4
v 9 3 -4
v 11 3 -4
v 13 3 -4
v 15 3 -4
v 17 3 -4
v 7 3 -5
v 9 3 -5
v 15 3 -6
v 17 3 -6
v -12 3 -7
v -11 3 -7
v -4 3 -7
v -2 3 -7
v -11 3 -8
v -10 3 -8
v -5 3 -8
v -4 3 -8
v -7 3 -10
v -5 3 -10
v 3 3 -10
v 5 3 -10
v 6 3 -10
v 11 3 -10
v 12 3 -10
v 13 3 -10
v -10 3 -11
v -9 3 -11
v -9 3 -12
v -7 3 -12
v -5 3 -12
v -7 3 -14
v -5 3 -14
v 5 3 -14
v 6 3 -14
v 11 3 -14
v 12 3 -14
v -18 3 -16
v -16 3 -16
v 16 3 -16
v 18 3 -16
v -18 3 -18
v -16 3 -18
v 16 3 -18
v 18 3 -18

# faces
f 5/7/1 2/7/1 1/7/1
f 6/6/1 3/6/1 2/6/1
f 6/7/1 2/7/1 5/7/1
f 7/7/1 4/7/1 3/7/1
f 7/6/1 3/6/1 6/6/1
f 8/7/1 4/7/1 7/7/1
f 13/7/1 10/7/1 9/7/1
f 14/7/1 10/7/1 13/7/1
f 18/7/1 12/7/1 11/7/1
f 19/7/1 12/7/1 18/7/1
f 20/7/1 16/7/1 15/7/1
f 21/6/1 17/6/1 16/6/1
f 21/7/1 16/7/1 20/7/1
f 22/7/1 18/7/1 17/7/1
f 22/6/1 17/6/1 21/6/1
f 23/7/1 18/7/1 22/7/1
f 26/7/1 25/7/1 24/7/1
f 27/7/1 25/7/1 26/7/1
f 28/7/2 29/7/2 32/7/2
f 32/7/2 29/7/2 33/7/2
f 30/7/2 31/7/2 36/7/2
f 36/7/2 31/7/2 37/7/2
f 33/7/2 34/7/2 38/7/2
f 34/6/2 35/6/2 39/6/2
f 38/7/2 34/7/2 39/7/2
f 35/7/2 36/7/2 40/7/2
f 39/6/2 35/6/2 40/6/2
f 40/7/2 36/7/2 41/7/2
f 42/7/2 43/7/2 46/7/2
f 43/6/2 44/6/2 47/6/2
f 46/7/2 43/7/2 47/7/2
f 44/7/2 45/7/2 48/7/2
f 47/6/2 44/6/2 48/6/2
f 48/7/2 45/7/2 49/7/2
f 52/7/3 51/7/3 50/7/3
f 53/7/3 51/7/3 52/7/3
f 54/6/3 53/6/3 52/6/3
f 55/6/3 53/6/3 54/6/3
f 56/7/3 55/7/3 54/7/3
f 57/7/3 55/7/3 56/7/3
f 60/7/3 59/7/3 58/7/3
f 62/7/3 60/7/3 58/7/3
f 62/7/3 61/7/3 60/7/3
f 63/7/3 61/7/3 62/7/3
f 64/7/3 61/7/3 63/7/3
f 65/7/3 61/7/3 64/7/3
f 66/6/3 65/6/3 64/6/3
f 67/6/3 65/6/3 66/6/3
f 69/7/3 67/7/3 66/7/3
f 70/7/3 67/7/3 69/7/3
f 71/7/3 69/7/3 68/7/3
f 72/7/3 69/7/3 71/7/3
f 73/7/4 74/7/4 75/7/4
f 75/7/4 74/7/4 76/7/4
f 77/7/4 78/7/4 79/7/4
f 79/7/4 78/7/4 80/7/4
f 80/7/4 81/7/4 82/7/4
f 82/7/4 81/7/4 83/7/4
f 82/6/4 83/6/4 84/6/4
f 84/6/4 83/6/4 85/6/4
f 84/7/4 85/7/4 87/7/4
f 87/7/4 85/7/4 88/7/4
f 86/7/4 87/7/4 89/7/4
f 89/7/4 87/7/4 90/7/4
f 91/7/4 92/7/4 93/7/4
f 93/7/4 92/7/4 94/7/4
f 93/6/4 94/6/4 95/6/4
f 95/6/4 94/6/4 96/6/4
f 95/7/4 96/7/4 97/7/4
f 97/7/4 96/7/4 98/7/4
f 103/7/5 100/7/5 99/7/5
f 104/7/5 100/7/5 103/7/5
f 106/7/5 100/7/5 104/7/5
f 107/7/5 102/7/5 101/7/5
f 109/6/5 101/6/5 100/6/5
f 109/7/5 108/7/5 107/7/5
f 109/7/5 107/7/5 101/7/5
f 110/7/5 108/7/5 109/7/5
f 111/7/5 106/7/5 105/7/5
f 112/7/5 100/7/5 106/7/5
f 112/7/5 106/7/5 111/7/5
f 112/6/5 109/6/5 100/6/5
f 112/6/5 110/6/5 109/6/5
f 113/7/5 108/7/5 110/7/5
f 113/6/5 110/6/5 112/6/5
f 114/7/5 108/7/5 113/7/5
f 115/6/5 112/6/5 111/6/5
f 115/6/5 113/6/5 112/6/5
f 115/6/5 114/6/5 113/6/5
f 116/6/5 114/6/5 115/6/5
f 117/6/5 114/6/5 116/6/5
f 118/6/5 114/6/5 117/6/5
f 119/7/5 116/7/5 115/7/5
f 119/6/5 117/6/5 116/6/5
f 120/6/5 117/6/5 119/6/5
f 121/6/5 117/6/5 120/6/5
f 122/7/5 118/7/5 117/7/5
f 122/6/5 117/6/5 121/6/5
f 123/7/5 119/7/5 115/7/5
f 123/7/5 120/7/5 119/7/5
f 124/7/5 120/7/5 123/7/5
f 125/7/5 118/7/5 122/7/5
f 125/7/5 122/7/5 121/7/5
f 126/7/5 118/7/5 125/7/5
f 127/7/5 120/7/5 124/7/5
f 128/6/5 121/6/5 120/6/5
f 128/7/5 120/7/5 127/7/5
f 129/7/5 125/7/5 121/7/5
f 129/6/5 121/6/5 128/6/5
f 130/7/5 125/7/5 129/7/5
f 131/7/6 132/7/6 135/7/6
f 135/7/6 132/7/6 136/7/6
f 136/7/6 132/7/6 139/7/6
f 132/6/6 133/6/6 140/6/6
f 139/7/6 132/7/6 140/7/6
f 133/7/6 134/7/6 141/7/6
f 140/6/6 133/6/6 141/6/6
f 141/7/6 134/7/6 142/7/6
f 137/7/6 138/7/6 144/7/6
f 144/7/6 138/7/6 145/7/6
f 142/7/6 143/7/6 146/7/6
f 146/7/6 143/7/6 147/7/6
f 144/6/6 145/6/6 148/6/6
f 148/6/6 145/6/6 149/6/6
f 146/6/6 147/6/6 150/6/6
f 150/6/6 147/6/6 151/6/6
f 148/7/6 149/7/6 152/7/6
f 152/7/6 149/7/6 153/7/6
f 150/7/6 151/7/6 156/7/6
f 156/7/6 151/7/6 157/7/6
f 153/7/6 154/7/6 158/7/6
f 154/6/6 155/6/6 159/6/6
f 158/7/6 154/7/6 159/7/6
f 155/7/6 156/7/6 160/7/6
f 159/6/6 155/6/6 160/6/6
f 160/7/6 156/7/6 161/7/6
f 162/7/6 163/7/6 166/7/6
f 163/6/6 164/6/6 167/6/6
f 166/7/6 163/7/6 167/7/6
f 164/7/6 165/7/6 168/7/6
f 167/6/6 164/6/6 168/6/6
f 168/7/6 165/7/6 169/7/6
f 166/6/6 167/6/6 170/6/6
f 167/6/6 168/6/6 170/6/6
f 168/6/6 169/6/6 170/6/6
f 170/6/6 169/6/6 171/6/6
f 171/6/6 169/6/6 172/6/6
f 172/6/6 169/6/6 173/6/6
f 173/6/6 169/6/6 174/6/6
f 174/6/6 169/6/6 175/6/6
f 173/6/6 174/6/6 176/6/6
f 174/4/6 175/4/6 176/4/6
f 175/6/6 169/6/6 177/6/6
f 176/4/6 175/4/6 177/4/6
f 177/6/6 169/6/6 178/6/6
f 177/8/6 178/8/6 179/8/6
f 178/6/6 169/6/6 179/6/6
f 179/6/6 169/6/6 180/6/6
f 166/6/6 170/6/6 181/6/6
f 170/1/6 171/1/6 182/1/6
f 181/6/6 170/6/6 182/6/6
f 171/6/6 172/6/6 183/6/6
f 182/1/6 171/1/6 183/1/6
f 172/1/6 173/1/6 184/1/6
f 183/6/6 172/6/6 184/6/6
f 173/6/6 176/6/6 185/6/6
f 184/1/6 173/1/6 185/1/6
f 176/6/6 177/6/6 185/6/6
f 185/6/6 177/6/6 186/6/6
f 186/6/6 177/6/6 187/6/6
f 179/8/6 180/8/6 188/8/6
f 187/6/6 177/6/6 188/6/6
f 177/8/6 179/8/6 188/8/6
f 186/6/6 187/6/6 189/6/6
f 187/8/6 188/8/6 190/8/6
f 189/6/6 187/6/6 190/6/6
f 180/6/6 169/6/6 191/6/6
f 190/8/6 188/8/6 191/8/6
f 188/8/6 180/8/6 191/8/6
f 191/6/6 169/6/6 192/6/6
f 186/6/6 189/6/6 193/6/6
f 189/8/6 190/8/6 194/8/6
f 193/6/6 189/6/6 194/6/6
f 190/8/6 191/8/6 194/8/6
f 191/8/6 192/8/6 194/8/6
f 192/6/6 169/6/6 195/6/6
f 194/8/6 192/8/6 195/8/6
f 195/6/6 169/6/6 196/6/6
f 166/6/6 181/6/6 197/6/6
f 197/6/6 181/6/6 198/6/6
f 181/1/6 182/1/6 199/1/6
f 182/1/6 183/1/6 199/1/6
f 183/1/6 184/1/6 199/1/6
f 185/1/6 186/1/6 199/1/6
f 184/1/6 185/1/6 199/1/6
f 199/1/6 186/1/6 200/1/6
f 197/1/6 198/1/6 201/1/6
f 166/6/6 197/6/6 201/6/6
f 198/6/6 181/6/6 202/6/6
f 201/1/6 198/1/6 202/1/6
f 181/1/6 199/1/6 203/1/6
f 202/6/6 181/6/6 203/6/6
f 203/1/6 199/1/6 204/1/6
f 199/3/6 200/3/6 205/3/6
f 204/1/6 199/1/6 205/1/6
f 200/1/6 186/1/6 206/1/6
f 205/3/6 200/3/6 206/3/6
f 206/1/6 186/1/6 207/1/6
f 193/1/6 194/1/6 208/1/6
f 195/1/6 196/1/6 208/1/6
f 194/1/6 195/1/6 208/1/6
f 208/1/6 196/1/6 209/1/6
f 209/1/6 196/1/6 210/1/6
f 210/1/6 196/1/6 211/1/6
f 203/1/6 204/1/6 212/1/6
f 201/6/6 202/6/6 212/6/6
f 202/1/6 203/1/6 212/1/6
f 212/1/6 204/1/6 213/1/6
f 186/6/6 193/6/6 214/6/6
f 207/1/6 186/1/6 214/1/6
f 214/6/6 193/6/6 215/6/6
f 204/5/6 205/5/6 216/5/6
f 205/3/6 206/3/6 216/3/6
f 206/5/6 207/5/6 217/5/6
f 216/3/6 206/3/6 217/3/6
f 214/1/6 215/1/6 218/1/6
f 207/1/6 214/1/6 218/1/6
f 215/6/6 193/6/6 219/6/6
f 218/1/6 215/1/6 219/1/6
f 219/6/6 193/6/6 220/6/6
f 193/1/6 208/1/6 221/1/6
f 208/2/6 209/2/6 221/2/6
f 209/1/6 210/1/6 222/1/6
f 221/2/6 209/2/6 222/2/6
f 210/2/6 211/2/6 223/2/6
f 222/1/6 210/1/6 223/1/6
f 211/1/6 196/1/6 224/1/6
f 223/2/6 211/2/6 224/2/6
f 213/1/6 204/1/6 225/1/6
f 204/5/6 216/5/6 225/5/6
f 216/5/6 217/5/6 225/5/6
f 225/5/6 217/5/6 226/5/6
f 217/5/6 207/5/6 227/5/6
f 226/5/6 217/5/6 227/5/6
f 207/1/6 218/1/6 228/1/6
f 227/5/6 207/5/6 228/5/6
f 221/1/6 222/1/6 229/1/6
f 193/1/6 221/1/6 229/1/6
f 222/5/6 223/5/6 230/5/6
f 229/1/6 222/1/6 230/1/6
f 223/1/6 224/1/6 231/1/6
f 230/5/6 223/5/6 231/5/6
f 224/1/6 196/1/6 232/1/6
f 231/1/6 224/1/6 232/1/6
f 225/1/6 226/1/6 233/1/6
f 213/1/6 225/1/6 233/1/6
f 226/5/6 227/5/6 234/5/6
f 233/1/6 226/1/6 234/1/6
f 227/1/6 228/1/6 235/1/6
f 234/5/6 227/5/6 235/5/6
f 228/1/6 218/1/6 236/1/6
f 235/1/6 228/1/6 236/1/6
f 219/1/6 220/1/6 237/1/6
f 218/6/6 219/6/6 237/6/6
f 220/6/6 193/6/6 238/6/6
f 237/1/6 220/1/6 238/1/6
f 193/1/6 229/1/6 239/1/6
f 238/6/6 193/6/6 239/6/6
f 230/5/6 231/5/6 240/5/6
f 229/5/6 230/5/6 240/5/6
f 231/5/6 232/5/6 240/5/6
f 240/5/6 232/5/6 241/5/6
f 237/6/6 238/6/6 242/6/6
f 238/1/6 239/1/6 242/1/6
f 239/1/6 229/1/6 243/1/6
f 242/1/6 239/1/6 243/1/6
f 196/6/6 169/6/6 244/6/6
f 232/1/6 196/1/6 244/1/6
f 244/6/6 169/6/6 245/6/6
f 213/1/6 233/1/6 246/1/6
f 233/2/6 234/2/6 246/2/6
f 234/1/6 235/1/6 247/1/6
f 246/2/6 234/2/6 247/2/6
f 235/2/6 236/2/6 248/2/6
f 247/1/6 235/1/6 248/1/6
f 236/1/6 218/1/6 249/1/6
f 248/2/6 236/2/6 249/2/6
f 243/1/6 229/1/6 250/1/6
f 229/5/6 240/5/6 250/5/6
f 240/3/6 241/3/6 251/3/6
f 250/5/6 240/5/6 251/5/6
f 241/5/6 232/5/6 252/5/6
f 251/3/6 241/3/6 252/3/6
f 244/1/6 245/1/6 253/1/6
f 252/5/6 232/5/6 253/5/6
f 232/1/6 244/1/6 253/1/6
f 253/1/6 245/1/6 254/1/6
f 245/6/6 169/6/6 255/6/6
f 254/1/6 245/1/6 255/1/6
f 255/6/6 169/6/6 256/6/6
f 250/1/6 251/1/6 257/1/6
f 251/3/6 252/3/6 257/3/6
f 253/1/6 254/1/6 258/1/6
f 257/3/6 252/3/6 258/3/6
f 252/1/6 253/1/6 258/1/6
f 255/1/6 256/1/6 259/1/6
f 254/6/6 255/6/6 259/6/6
f 256/6/6 169/6/6 260/6/6
f 259/1/6 256/1/6 260/1/6
f 212/6/6 213/6/6 261/6/6
f 213/1/6 246/1/6 261/1/6
f 247/1/6 248/1/6 261/1/6
f 246/1/6 247/1/6 261/1/6
f 248/1/6 249/1/6 261/1/6
f 261/1/6 249/1/6 262/1/6
f 249/1/6 218/1/6 263/1/6
f 262/1/6 249/1/6 263/1/6
f 237/6/6 242/6/6 264/6/6
f 263/1/6 218/1/6 264/1/6
f 242/6/6 243/6/6 264/6/6
f 218/6/6 237/6/6 264/6/6
f 262/8/6 263/8/6 265/8/6
f 261/6/6 262/6/6 265/6/6
f 265/8/6 263/8/6 266/8/6
f 266/8/6 263/8/6 267/8/6
f 263/6/6 264/6/6 268/6/6
f 267/8/6 263/8/6 268/8/6
f 266/8/6 267/8/6 269/8/6
f 267/6/6 268/6/6 270/6/6
f 269/8/6 267/8/6 270/8/6
f 264/6/6 243/6/6 271/6/6
f 270/6/6 268/6/6 271/6/6
f 268/6/6 264/6/6 271/6/6
f 250/1/6 257/1/6 271/1/6
f 243/1/6 250/1/6 271/1/6
f 257/1/6 258/1/6 271/1/6
f 271/1/6 258/1/6 272/1/6
f 272/1/6 258/1/6 273/1/6
f 258/1/6 254/1/6 274/1/6
f 273/1/6 258/1/6 274/1/6
f 274/1/6 254/1/6 275/1/6
f 254/6/6 259/6/6 276/6/6
f 275/1/6 254/1/6 276/1/6
f 259/6/6 260/6/6 276/6/6
f 266/8/6 269/8/6 277/8/6
f 265/6/6 266/6/6 277/6/6
f 277/8/6 269/8/6 278/8/6
f 277/6/6 278/6/6 279/6/6
f 278/8/6 269/8/6 279/8/6
f 269/6/6 270/6/6 280/6/6
f 279/8/6 269/8/6 280/8/6
f 270/6/6 271/6/6 280/6/6
f 271/6/6 272/6/6 280/6/6
f 280/6/6 272/6/6 281/6/6
f 279/6/6 280/6/6 282/6/6
f 280/4/6 281/4/6 282/4/6
f 281/6/6 272/6/6 283/6/6
f 282/4/6 281/4/6 283/4/6
f 272/1/6 273/1/6 284/1/6
f 283/6/6 272/6/6 284/6/6
f 273/6/6 274/6/6 285/6/6
f 284/1/6 273/1/6 285/1/6
f 274/1/6 275/1/6 286/1/6
f 285/6/6 274/6/6 286/6/6
f 275/6/6 276/6/6 287/6/6
f 286/1/6 275/1/6 287/1/6
f 277/6/6 279/6/6 288/6/6
f 166/6/6 201/6/6 288/6/6
f 286/6/6 287/6/6 288/6/6
f 279/6/6 282/6/6 288/6/6
f 265/6/6 277/6/6 288/6/6
f 201/6/6 212/6/6 288/6/6
f 282/6/6 283/6/6 288/6/6
f 283/6/6 284/6/6 288/6/6
f 212/6/6 261/6/6 288/6/6
f 261/6/6 265/6/6 288/6/6
f 285/6/6 286/6/6 288/6/6
f 284/6/6 285/6/6 288/6/6
f 288/6/6 287/6/6 289/6/6
f 287/6/6 276/6/6 290/6/6
f 289/6/6 287/6/6 290/6/6
f 276/6/6 260/6/6 290/6/6
f 260/6/6 169/6/6 291/6/6
f 290/6/6 260/6/6 291/6/6
f 288/7/6 289/7/6 292/7/6
f 289/6/6 290/6/6 293/6/6
f 292/7/6 289/7/6 293/7/6
f 290/7/6 291/7/6 294/7/6
f 293/6/6 290/6/6 294/6/6
f 294/7/6 291/7/6 295/7/6
