# MagicaVoxel @ Ephtracy

# material
mtllib SearchEnemyEye.mtl
usemtl palette

# normals
vn -1 0 0
vn 1 0 0
vn 0 0 1
vn 0 0 -1
vn 0 -1 0
vn 0 1 0

# texcoords
vt 0.943359 0.5
vt 0.978516 0.5

# verts
v -14 18 2
v -14 18 -0
v -14 19 2
v -14 19 -0
v -13 19 3
v -13 19 2
v -13 19 -0
v -13 19 -2
v -13 20 3
v -13 20 2
v -13 20 -0
v -13 20 -2
v -12 19 4
v -12 19 3
v -12 20 4
v -12 20 3
v -12 24 3
v -12 24 2
v -12 24 -0
v -12 24 -1
v -12 25 3
v -12 25 2
v -12 25 -0
v -12 25 -1
v -11 19 -2
v -11 19 -3
v -11 20 5
v -11 20 4
v -11 20 -2
v -11 20 -3
v -11 20 -4
v -11 21 5
v -11 21 4
v -11 21 -3
v -11 21 -4
v -11 24 4
v -11 24 3
v -11 24 -1
v -11 24 -2
v -11 25 4
v -11 25 3
v -11 25 2
v -11 25 -0
v -11 25 -1
v -11 25 -2
v -11 26 3
v -11 26 2
v -11 26 -0
v -11 26 -1
v -10 21 6
v -10 21 5
v -10 22 6
v -10 22 5
v -12 18 2
v -12 18 -0
v -12 19 3
v -12 19 2
v -12 19 -0
v -12 19 -1
v -12 20 3
v -12 20 2
v -12 20 -0
v -12 20 -1
v -11 19 -1
v -11 19 -2
v -11 20 -1
v -11 20 -2
v -11 24 3
v -11 24 2
v -11 24 -0
v -11 24 -1
v -11 25 3
v -11 25 2
v -11 25 -0
v -11 25 -1
v -10 19 4
v -10 19 3
v -10 19 -2
v -10 19 -3
v -10 20 5
v -10 20 4
v -10 20 3
v -10 20 -2
v -10 20 -3
v -10 20 -4
v -10 21 5
v -10 21 4
v -10 21 -3
v -10 21 -4
v -10 24 4
v -10 24 3
v -10 24 -1
v -10 24 -2
v -10 25 4
v -10 25 3
v -10 25 2
v -10 25 -0
v -10 25 -1
v -10 25 -2
v -10 26 3
v -10 26 2
v -10 26 -0
v -10 26 -1
v -9 21 6
v -9 21 5
v -9 22 6
v -9 22 5
v -10 21 6
v -10 22 6
v -9 21 6
v -9 22 6
v -11 20 5
v -11 21 5
v -10 20 5
v -10 21 5
v -12 19 4
v -12 20 4
v -11 20 4
v -11 24 4
v -11 25 4
v -10 19 4
v -10 20 4
v -10 24 4
v -10 25 4
v -13 19 3
v -13 20 3
v -12 19 3
v -12 20 3
v -12 24 3
v -12 25 3
v -11 24 3
v -11 25 3
v -11 26 3
v -10 25 3
v -10 26 3
v -14 18 2
v -14 19 2
v -13 19 2
v -12 18 2
v -12 19 2
v -13 19 -0
v -13 20 -0
v -12 19 -0
v -12 20 -0
v -12 24 -0
v -12 25 -0
v -11 24 -0
v -11 25 -0
v -11 26 -0
v -10 25 -0
v -10 26 -0
v -12 19 -1
v -12 20 -1
v -11 19 -1
v -11 20 -1
v -11 24 -1
v -11 25 -1
v -10 24 -1
v -10 25 -1
v -11 19 -2
v -11 20 -2
v -10 19 -2
v -10 20 -2
v -11 20 -3
v -11 21 -3
v -10 20 -3
v -10 21 -3
v -10 21 5
v -10 22 5
v -9 21 5
v -9 22 5
v -11 20 4
v -11 21 4
v -10 20 4
v -10 21 4
v -12 19 3
v -12 20 3
v -11 24 3
v -11 25 3
v -10 19 3
v -10 20 3
v -10 24 3
v -10 25 3
v -13 19 2
v -13 20 2
v -12 19 2
v -12 20 2
v -12 24 2
v -12 25 2
v -11 24 2
v -11 25 2
v -11 26 2
v -10 25 2
v -10 26 2
v -14 18 -0
v -14 19 -0
v -13 19 -0
v -12 18 -0
v -12 19 -0
v -12 24 -1
v -12 25 -1
v -11 24 -1
v -11 25 -1
v -11 26 -1
v -10 25 -1
v -10 26 -1
v -13 19 -2
v -13 20 -2
v -11 19 -2
v -11 20 -2
v -11 24 -2
v -11 25 -2
v -10 24 -2
v -10 25 -2
v -11 19 -3
v -11 20 -3
v -10 19 -3
v -10 20 -3
v -11 20 -4
v -11 21 -4
v -10 20 -4
v -10 21 -4
v -14 18 2
v -12 18 2
v -14 18 -0
v -12 18 -0
v -12 19 4
v -10 19 4
v -13 19 3
v -12 19 3
v -10 19 3
v -13 19 2
v -12 19 2
v -13 19 -0
v -12 19 -0
v -12 19 -1
v -11 19 -1
v -13 19 -2
v -11 19 -2
v -10 19 -2
v -11 19 -3
v -10 19 -3
v -11 20 5
v -10 20 5
v -11 20 4
v -10 20 4
v -11 20 -3
v -10 20 -3
v -11 20 -4
v -10 20 -4
v -10 21 6
v -9 21 6
v -10 21 5
v -9 21 5
v -11 24 4
v -10 24 4
v -12 24 3
v -11 24 3
v -10 24 3
v -12 24 2
v -11 24 2
v -12 24 -0
v -11 24 -0
v -12 24 -1
v -11 24 -1
v -10 24 -1
v -11 24 -2
v -10 24 -2
v -11 25 3
v -10 25 3
v -11 25 2
v -10 25 2
v -11 25 -0
v -10 25 -0
v -11 25 -1
v -10 25 -1
v -14 19 2
v -13 19 2
v -12 19 2
v -14 19 -0
v -13 19 -0
v -12 19 -0
v -12 20 4
v -11 20 4
v -10 20 4
v -13 20 3
v -12 20 3
v -10 20 3
v -13 20 2
v -12 20 2
v -13 20 -0
v -12 20 -0
v -12 20 -1
v -11 20 -1
v -13 20 -2
v -11 20 -2
v -10 20 -2
v -11 20 -3
v -10 20 -3
v -11 21 5
v -10 21 5
v -11 21 4
v -10 21 4
v -11 21 -3
v -10 21 -3
v -11 21 -4
v -10 21 -4
v -10 22 6
v -9 22 6
v -10 22 5
v -9 22 5
v -11 25 4
v -10 25 4
v -12 25 3
v -11 25 3
v -10 25 3
v -12 25 2
v -11 25 2
v -12 25 -0
v -11 25 -0
v -12 25 -1
v -11 25 -1
v -10 25 -1
v -11 25 -2
v -10 25 -2
v -11 26 3
v -10 26 3
v -11 26 2
v -10 26 2
v -11 26 -0
v -10 26 -0
v -11 26 -1
v -10 26 -1

# faces
f 3/1/1 2/1/1 1/1/1
f 4/1/1 2/1/1 3/1/1
f 9/1/1 6/1/1 5/1/1
f 10/1/1 6/1/1 9/1/1
f 11/1/1 8/1/1 7/1/1
f 12/1/1 8/1/1 11/1/1
f 15/1/1 14/1/1 13/1/1
f 16/1/1 14/1/1 15/1/1
f 21/2/1 18/2/1 17/2/1
f 22/2/1 18/2/1 21/2/1
f 23/2/1 20/2/1 19/2/1
f 24/2/1 20/2/1 23/2/1
f 29/1/1 26/1/1 25/1/1
f 30/1/1 26/1/1 29/1/1
f 32/1/1 28/1/1 27/1/1
f 33/1/1 28/1/1 32/1/1
f 34/1/1 31/1/1 30/1/1
f 35/1/1 31/1/1 34/1/1
f 40/2/1 37/2/1 36/2/1
f 41/2/1 37/2/1 40/2/1
f 44/2/1 39/2/1 38/2/1
f 45/2/1 39/2/1 44/2/1
f 46/2/1 42/2/1 41/2/1
f 47/2/1 42/2/1 46/2/1
f 48/2/1 44/2/1 43/2/1
f 49/2/1 44/2/1 48/2/1
f 52/1/1 51/1/1 50/1/1
f 53/1/1 51/1/1 52/1/1
f 54/1/2 55/1/2 57/1/2
f 57/1/2 55/1/2 58/1/2
f 56/1/2 57/1/2 60/1/2
f 60/1/2 57/1/2 61/1/2
f 58/1/2 59/1/2 62/1/2
f 62/1/2 59/1/2 63/1/2
f 64/1/2 65/1/2 66/1/2
f 66/1/2 65/1/2 67/1/2
f 68/2/2 69/2/2 72/2/2
f 72/2/2 69/2/2 73/2/2
f 70/2/2 71/2/2 74/2/2
f 74/2/2 71/2/2 75/2/2
f 76/1/2 77/1/2 81/1/2
f 81/1/2 77/1/2 82/1/2
f 78/1/2 79/1/2 83/1/2
f 83/1/2 79/1/2 84/1/2
f 80/1/2 81/1/2 86/1/2
f 86/1/2 81/1/2 87/1/2
f 84/1/2 85/1/2 88/1/2
f 88/1/2 85/1/2 89/1/2
f 90/2/2 91/2/2 94/2/2
f 94/2/2 91/2/2 95/2/2
f 92/2/2 93/2/2 98/2/2
f 98/2/2 93/2/2 99/2/2
f 95/2/2 96/2/2 100/2/2
f 100/2/2 96/2/2 101/2/2
f 97/2/2 98/2/2 102/2/2
f 102/2/2 98/2/2 103/2/2
f 104/1/2 105/1/2 106/1/2
f 106/1/2 105/1/2 107/1/2
f 110/1/3 109/1/3 108/1/3
f 111/1/3 109/1/3 110/1/3
f 114/1/3 113/1/3 112/1/3
f 115/1/3 113/1/3 114/1/3
f 118/1/3 117/1/3 116/1/3
f 121/1/3 118/1/3 116/1/3
f 122/1/3 118/1/3 121/1/3
f 123/2/3 120/2/3 119/2/3
f 124/2/3 120/2/3 123/2/3
f 127/1/3 126/1/3 125/1/3
f 128/1/3 126/1/3 127/1/3
f 131/2/3 130/2/3 129/2/3
f 132/2/3 130/2/3 131/2/3
f 134/2/3 133/2/3 132/2/3
f 135/2/3 133/2/3 134/2/3
f 138/1/3 137/1/3 136/1/3
f 139/1/3 138/1/3 136/1/3
f 140/1/3 138/1/3 139/1/3
f 143/1/3 142/1/3 141/1/3
f 144/1/3 142/1/3 143/1/3
f 147/2/3 146/2/3 145/2/3
f 148/2/3 146/2/3 147/2/3
f 150/2/3 149/2/3 148/2/3
f 151/2/3 149/2/3 150/2/3
f 154/1/3 153/1/3 152/1/3
f 155/1/3 153/1/3 154/1/3
f 158/2/3 157/2/3 156/2/3
f 159/2/3 157/2/3 158/2/3
f 162/1/3 161/1/3 160/1/3
f 163/1/3 161/1/3 162/1/3
f 166/1/3 165/1/3 164/1/3
f 167/1/3 165/1/3 166/1/3
f 168/1/4 169/1/4 170/1/4
f 170/1/4 169/1/4 171/1/4
f 172/1/4 173/1/4 174/1/4
f 174/1/4 173/1/4 175/1/4
f 176/1/4 177/1/4 180/1/4
f 180/1/4 177/1/4 181/1/4
f 178/2/4 179/2/4 182/2/4
f 182/2/4 179/2/4 183/2/4
f 184/1/4 185/1/4 186/1/4
f 186/1/4 185/1/4 187/1/4
f 188/2/4 189/2/4 190/2/4
f 190/2/4 189/2/4 191/2/4
f 191/2/4 192/2/4 193/2/4
f 193/2/4 192/2/4 194/2/4
f 195/1/4 196/1/4 197/1/4
f 195/1/4 197/1/4 198/1/4
f 198/1/4 197/1/4 199/1/4
f 200/2/4 201/2/4 202/2/4
f 202/2/4 201/2/4 203/2/4
f 203/2/4 204/2/4 205/2/4
f 205/2/4 204/2/4 206/2/4
f 207/1/4 208/1/4 209/1/4
f 209/1/4 208/1/4 210/1/4
f 211/2/4 212/2/4 213/2/4
f 213/2/4 212/2/4 214/2/4
f 215/1/4 216/1/4 217/1/4
f 217/1/4 216/1/4 218/1/4
f 219/1/4 220/1/4 221/1/4
f 221/1/4 220/1/4 222/1/4
f 225/1/5 224/1/5 223/1/5
f 226/1/5 224/1/5 225/1/5
f 230/1/5 228/1/5 227/1/5
f 231/1/5 228/1/5 230/1/5
f 232/1/5 230/1/5 229/1/5
f 233/1/5 230/1/5 232/1/5
f 236/1/5 235/1/5 234/1/5
f 238/1/5 236/1/5 234/1/5
f 238/1/5 237/1/5 236/1/5
f 239/1/5 237/1/5 238/1/5
f 241/1/5 240/1/5 239/1/5
f 242/1/5 240/1/5 241/1/5
f 245/1/5 244/1/5 243/1/5
f 246/1/5 244/1/5 245/1/5
f 249/1/5 248/1/5 247/1/5
f 250/1/5 248/1/5 249/1/5
f 253/1/5 252/1/5 251/1/5
f 254/1/5 252/1/5 253/1/5
f 258/2/5 256/2/5 255/2/5
f 259/2/5 256/2/5 258/2/5
f 260/2/5 258/2/5 257/2/5
f 261/2/5 258/2/5 260/2/5
f 264/2/5 263/2/5 262/2/5
f 265/2/5 263/2/5 264/2/5
f 267/2/5 266/2/5 265/2/5
f 268/2/5 266/2/5 267/2/5
f 271/2/5 270/2/5 269/2/5
f 272/2/5 270/2/5 271/2/5
f 275/2/5 274/2/5 273/2/5
f 276/2/5 274/2/5 275/2/5
f 277/1/6 278/1/6 280/1/6
f 278/1/6 279/1/6 280/1/6
f 280/1/6 279/1/6 281/1/6
f 281/1/6 279/1/6 282/1/6
f 283/1/6 284/1/6 287/1/6
f 284/1/6 285/1/6 287/1/6
f 287/1/6 285/1/6 288/1/6
f 286/1/6 287/1/6 289/1/6
f 289/1/6 287/1/6 290/1/6
f 291/1/6 292/1/6 293/1/6
f 291/1/6 293/1/6 295/1/6
f 293/1/6 294/1/6 295/1/6
f 295/1/6 294/1/6 296/1/6
f 296/1/6 297/1/6 298/1/6
f 298/1/6 297/1/6 299/1/6
f 300/1/6 301/1/6 302/1/6
f 302/1/6 301/1/6 303/1/6
f 304/1/6 305/1/6 306/1/6
f 306/1/6 305/1/6 307/1/6
f 308/1/6 309/1/6 310/1/6
f 310/1/6 309/1/6 311/1/6
f 312/2/6 313/2/6 315/2/6
f 315/2/6 313/2/6 316/2/6
f 314/2/6 315/2/6 317/2/6
f 317/2/6 315/2/6 318/2/6
f 319/2/6 320/2/6 321/2/6
f 321/2/6 320/2/6 322/2/6
f 322/2/6 323/2/6 324/2/6
f 324/2/6 323/2/6 325/2/6
f 326/2/6 327/2/6 328/2/6
f 328/2/6 327/2/6 329/2/6
f 330/2/6 331/2/6 332/2/6
f 332/2/6 331/2/6 333/2/6
